<svg id="visual" viewBox="0 0 900 300" width="900" height="300" xmlns="http://www.w3.org/2000/svg" xmlns:xlink="http://www.w3.org/1999/xlink" version="1.1"><rect x="0" y="0" width="900" height="300" fill="#00195d"></rect><path d="M0 200L37.5 206.3C75 212.7 150 225.3 225 233.7C300 242 375 246 450 238.7C525 231.3 600 212.7 675 213.5C750 214.3 825 234.7 862.5 244.8L900 255L900 301L862.5 301C825 301 750 301 675 301C600 301 525 301 450 301C375 301 300 301 225 301C150 301 75 301 37.5 301L0 301Z" fill="#ffffff" stroke-linecap="round" stroke-linejoin="miter"></path></svg>