<svg id="visual" viewBox="0 0 960 300" width="960" height="300" xmlns="http://www.w3.org/2000/svg" xmlns:xlink="http://www.w3.org/1999/xlink" version="1.1"><rect x="0" y="0" width="960" height="300" fill="#000000"></rect><path d="M0 217L22.8 212C45.7 207 91.3 197 137 196.8C182.7 196.7 228.3 206.3 274 209.2C319.7 212 365.3 208 411.2 206.7C457 205.3 503 206.7 548.8 206.2C594.7 205.7 640.3 203.3 686 203.2C731.7 203 777.3 205 823 208.3C868.7 211.7 914.3 216.3 937.2 218.7L960 221L960 301L937.2 301C914.3 301 868.7 301 823 301C777.3 301 731.7 301 686 301C640.3 301 594.7 301 548.8 301C503 301 457 301 411.2 301C365.3 301 319.7 301 274 301C228.3 301 182.7 301 137 301C91.3 301 45.7 301 22.8 301L0 301Z" fill="#5a5a5a"></path><path d="M0 214L22.8 212.2C45.7 210.3 91.3 206.7 137 209.8C182.7 213 228.3 223 274 223.7C319.7 224.3 365.3 215.7 411.2 215.5C457 215.3 503 223.7 548.8 222C594.7 220.3 640.3 208.7 686 208.3C731.7 208 777.3 219 823 224.2C868.7 229.3 914.3 228.7 937.2 228.3L960 228L960 301L937.2 301C914.3 301 868.7 301 823 301C777.3 301 731.7 301 686 301C640.3 301 594.7 301 548.8 301C503 301 457 301 411.2 301C365.3 301 319.7 301 274 301C228.3 301 182.7 301 137 301C91.3 301 45.7 301 22.8 301L0 301Z" fill="#808080"></path><path d="M0 225L22.8 226.7C45.7 228.3 91.3 231.7 137 232.3C182.7 233 228.3 231 274 232.3C319.7 233.7 365.3 238.3 411.2 237.8C457 237.3 503 231.7 548.8 232.5C594.7 233.3 640.3 240.7 686 245.3C731.7 250 777.3 252 823 249C868.7 246 914.3 238 937.2 234L960 230L960 301L937.2 301C914.3 301 868.7 301 823 301C777.3 301 731.7 301 686 301C640.3 301 594.7 301 548.8 301C503 301 457 301 411.2 301C365.3 301 319.7 301 274 301C228.3 301 182.7 301 137 301C91.3 301 45.7 301 22.8 301L0 301Z" fill="#a9a9a9"></path><path d="M0 268L22.8 265.2C45.7 262.3 91.3 256.7 137 255.2C182.7 253.7 228.3 256.3 274 254.7C319.7 253 365.3 247 411.2 248.2C457 249.3 503 257.7 548.8 262.2C594.7 266.7 640.3 267.3 686 265C731.7 262.7 777.3 257.3 823 257C868.7 256.7 914.3 261.3 937.2 263.7L960 266L960 301L937.2 301C914.3 301 868.7 301 823 301C777.3 301 731.7 301 686 301C640.3 301 594.7 301 548.8 301C503 301 457 301 411.2 301C365.3 301 319.7 301 274 301C228.3 301 182.7 301 137 301C91.3 301 45.7 301 22.8 301L0 301Z" fill="#d3d3d3"></path><path d="M0 273L22.8 274.8C45.7 276.7 91.3 280.3 137 282.2C182.7 284 228.3 284 274 282.2C319.7 280.3 365.3 276.7 411.2 274.7C457 272.7 503 272.3 548.8 274C594.7 275.7 640.3 279.3 686 280.2C731.7 281 777.3 279 823 279C868.7 279 914.3 281 937.2 282L960 283L960 301L937.2 301C914.3 301 868.7 301 823 301C777.3 301 731.7 301 686 301C640.3 301 594.7 301 548.8 301C503 301 457 301 411.2 301C365.3 301 319.7 301 274 301C228.3 301 182.7 301 137 301C91.3 301 45.7 301 22.8 301L0 301Z" fill="#ffffff"></path></svg>