<svg id="visual" viewBox="0 0 960 300" width="960" height="300" xmlns="http://www.w3.org/2000/svg" xmlns:xlink="http://www.w3.org/1999/xlink" version="1.1"><rect x="0" y="0" width="960" height="300" fill="#00195d"></rect><path d="M0 177L22.8 182.7C45.7 188.3 91.3 199.7 137 203.5C182.7 207.3 228.3 203.7 274 204.3C319.7 205 365.3 210 411.2 208.5C457 207 503 199 548.8 194.7C594.7 190.3 640.3 189.7 686 191.3C731.7 193 777.3 197 823 198.7C868.7 200.3 914.3 199.7 937.2 199.3L960 199L960 301L937.2 301C914.3 301 868.7 301 823 301C777.3 301 731.7 301 686 301C640.3 301 594.7 301 548.8 301C503 301 457 301 411.2 301C365.3 301 319.7 301 274 301C228.3 301 182.7 301 137 301C91.3 301 45.7 301 22.8 301L0 301Z" fill="#ffffff"></path><path d="M0 234L22.8 231.2C45.7 228.3 91.3 222.7 137 216.5C182.7 210.3 228.3 203.7 274 201.3C319.7 199 365.3 201 411.2 204.8C457 208.7 503 214.3 548.8 218.2C594.7 222 640.3 224 686 221.2C731.7 218.3 777.3 210.7 823 211.5C868.7 212.3 914.3 221.7 937.2 226.3L960 231L960 301L937.2 301C914.3 301 868.7 301 823 301C777.3 301 731.7 301 686 301C640.3 301 594.7 301 548.8 301C503 301 457 301 411.2 301C365.3 301 319.7 301 274 301C228.3 301 182.7 301 137 301C91.3 301 45.7 301 22.8 301L0 301Z" fill="#b9b9b9"></path><path d="M0 233L22.8 236.3C45.7 239.7 91.3 246.3 137 245.2C182.7 244 228.3 235 274 232.5C319.7 230 365.3 234 411.2 233C457 232 503 226 548.8 225.3C594.7 224.7 640.3 229.3 686 233.5C731.7 237.7 777.3 241.3 823 241C868.7 240.7 914.3 236.3 937.2 234.2L960 232L960 301L937.2 301C914.3 301 868.7 301 823 301C777.3 301 731.7 301 686 301C640.3 301 594.7 301 548.8 301C503 301 457 301 411.2 301C365.3 301 319.7 301 274 301C228.3 301 182.7 301 137 301C91.3 301 45.7 301 22.8 301L0 301Z" fill="#777777"></path><path d="M0 247L22.8 250.3C45.7 253.7 91.3 260.3 137 263.8C182.7 267.3 228.3 267.7 274 267.5C319.7 267.3 365.3 266.7 411.2 266.7C457 266.7 503 267.3 548.8 266.7C594.7 266 640.3 264 686 260.3C731.7 256.7 777.3 251.3 823 252.2C868.7 253 914.3 260 937.2 263.5L960 267L960 301L937.2 301C914.3 301 868.7 301 823 301C777.3 301 731.7 301 686 301C640.3 301 594.7 301 548.8 301C503 301 457 301 411.2 301C365.3 301 319.7 301 274 301C228.3 301 182.7 301 137 301C91.3 301 45.7 301 22.8 301L0 301Z" fill="#3b3b3b"></path><path d="M0 273L22.8 272.8C45.7 272.7 91.3 272.3 137 270.7C182.7 269 228.3 266 274 264.8C319.7 263.7 365.3 264.3 411.2 266.7C457 269 503 273 548.8 273.5C594.7 274 640.3 271 686 270.8C731.7 270.7 777.3 273.3 823 275.7C868.7 278 914.3 280 937.2 281L960 282L960 301L937.2 301C914.3 301 868.7 301 823 301C777.3 301 731.7 301 686 301C640.3 301 594.7 301 548.8 301C503 301 457 301 411.2 301C365.3 301 319.7 301 274 301C228.3 301 182.7 301 137 301C91.3 301 45.7 301 22.8 301L0 301Z" fill="#000000"></path></svg>