<svg id="visual" viewBox="0 0 900 300" width="900" height="300" xmlns="http://www.w3.org/2000/svg" xmlns:xlink="http://www.w3.org/1999/xlink" version="1.1"><rect x="0" y="0" width="900" height="300" fill="#ffffff"></rect><path d="M0 206L37.5 212C75 218 150 230 225 230.8C300 231.7 375 221.3 450 213.7C525 206 600 201 675 202.5C750 204 825 212 862.5 216L900 220L900 301L862.5 301C825 301 750 301 675 301C600 301 525 301 450 301C375 301 300 301 225 301C150 301 75 301 37.5 301L0 301Z" fill="#00195d" stroke-linecap="round" stroke-linejoin="miter"></path></svg>